ffmpeg started on 2025-06-07 at 16:58:22
Report written to "D:\Convert\FFMetrics\reports\psnr_report-6.txt"
Log level: 32
Command line:
ffmpeg -hide_banner -nostdin -i "G:\\\xc0\xed\xe8\xec\xe5\\\xce\xed\xe3\xee\xe8\xed\xe3\xe8\\!_36_\xce\xf1\xe5\xed\xfc_2024\\DreamCast\\\xd6\xe8\xea\xeb \xe8\xf1\xf2\xee\xf0\xe8\xe9 - \xcc\xe5\xe6\xf1\xe5\xe7\xee\xed\xfc\xe5 \xe8 \xf1\xe5\xe7\xee\xed \xec\xee\xed\xf1\xf2\xf0\xee\xe2\\DC_Monogatari_Series_Off_and_Monster_Season_14_Telegram_HEVC.mkv" -i "G:\\\xc0\xed\xe8\xec\xe5\\\xce\xed\xe3\xee\xe8\xed\xe3\xe8\\!_36_\xce\xf1\xe5\xed\xfc_2024\\DreamCast\\\xd6\xe8\xea\xeb \xe8\xf1\xf2\xee\xf0\xe8\xe9 - \xcc\xe5\xe6\xf1\xe5\xe7\xee\xed\xfc\xe5 \xe8 \xf1\xe5\xe7\xee\xed \xec\xee\xed\xf1\xf2\xf0\xee\xe2\\DC_Monogatari_Series_Off_and_Monster_Season_14_Telegram.mp4" -lavfi "[0:v]settb=AVTB,setpts=PTS-STARTPTS,format=pix_fmts=yuv420p10,fps=24000/1001,scale=1920:1080:flags=bicubic[main];[1:v]settb=AVTB,setpts=PTS-STARTPTS,format=pix_fmts=yuv420p,fps=24000/1001,scale=1920:1080:flags=bicubic[ref];[main][ref]psnr=eof_action=endall:stats_file='D\\:/Convert/FFMetrics/logs/psnr_logfile-6.txt'" -f null -
Input #0, matroska,webm, from 'G:\Аниме\Онгоинги\!_36_Осень_2024\DreamCast\Цикл историй - Межсезонье и сезон монстров\DC_Monogatari_Series_Off_and_Monster_Season_14_Telegram_HEVC.mkv':
  Metadata:
    COMPATIBLE_BRANDS: isomiso2avc1mp41
    MAJOR_BRAND     : isom
    MINOR_VERSION   : 512
    ENCODER         : Lavf61.7.100
  Duration: 00:26:13.29, start: -0.021000, bitrate: 1437 kb/s
  Stream #0:0: Video: hevc (Main 10), yuv420p10le(tv, bt709, progressive), 1920x1080 [SAR 1:1 DAR 16:9], 23.98 fps, 23.98 tbr, 1k tbn (default)
      Metadata:
        HANDLER_NAME    : VideoHandler
        VENDOR_ID       : [0][0][0][0]
        ENCODER         : Lavc61.19.100 libx265
        BPS             : 1239893
        DURATION        : 00:26:11.528708333
        NUMBER_OF_FRAMES: 37679
        NUMBER_OF_BYTES : 243565854
        _STATISTICS_WRITING_APP: mkvpropedit v66.0.0 ('Josie') 64-bit
        _STATISTICS_WRITING_DATE_UTC: 2025-06-05 12:55:31
        _STATISTICS_TAGS: BPS DURATION NUMBER_OF_FRAMES NUMBER_OF_BYTES
  Stream #0:1: Audio: aac (LC), 48000 Hz, stereo, fltp (default)
      Metadata:
        HANDLER_NAME    : SoundHandler
        VENDOR_ID       : [0][0][0][0]
        ENCODER         : Lavc61.19.100 aac
        BPS             : 194993
        DURATION        : 00:26:13.290000000
        NUMBER_OF_FRAMES: 73749
        NUMBER_OF_BYTES : 38347662
        _STATISTICS_WRITING_APP: mkvpropedit v66.0.0 ('Josie') 64-bit
        _STATISTICS_WRITING_DATE_UTC: 2025-06-05 12:55:31
        _STATISTICS_TAGS: BPS DURATION NUMBER_OF_FRAMES NUMBER_OF_BYTES
Input #1, mov,mp4,m4a,3gp,3g2,mj2, from 'G:\Аниме\Онгоинги\!_36_Осень_2024\DreamCast\Цикл историй - Межсезонье и сезон монстров\DC_Monogatari_Series_Off_and_Monster_Season_14_Telegram.mp4':
  Metadata:
    major_brand     : isom
    minor_version   : 512
    compatible_brands: isomiso2avc1mp41
    encoder         : Lavf61.1.100
  Duration: 00:26:13.25, start: 0.000000, bitrate: 3503 kb/s
  Stream #1:0[0x1](und): Video: h264 (High) (avc1 / 0x31637661), yuv420p(tv, bt709, progressive), 1920x1080 [SAR 1:1 DAR 16:9], 3359 kb/s, 23.98 fps, 23.98 tbr, 24k tbn (default)
      Metadata:
        handler_name    : VideoHandler
        vendor_id       : [0][0][0][0]
        encoder         : Lavc61.3.100 h264_qsv
  Stream #1:1[0x2](und): Audio: aac (HE-AACv2) (mp4a / 0x6134706D), 48000 Hz, stereo, fltp, 144 kb/s (default)
      Metadata:
        handler_name    : SoundHandler
        vendor_id       : [0][0][0][0]
Stream mapping:
  Stream #0:0 (hevc) -> settb:default
  Stream #1:0 (h264) -> settb:default
  psnr:default -> Stream #0:0 (wrapped_avframe)
  Stream #0:1 -> #0:1 (aac (native) -> pcm_s16le (native))
Output #0, null, to 'pipe:':
  Metadata:
    COMPATIBLE_BRANDS: isomiso2avc1mp41
    MAJOR_BRAND     : isom
    MINOR_VERSION   : 512
    encoder         : Lavf61.7.100
  Stream #0:0: Video: wrapped_avframe, yuv420p10le(tv, bt709, progressive), 1920x1080 [SAR 1:1 DAR 16:9], q=2-31, 200 kb/s, 23.98 fps, 23.98 tbn
      Metadata:
        encoder         : Lavc61.19.100 wrapped_avframe
  Stream #0:1: Audio: pcm_s16le, 48000 Hz, stereo, s16, 1536 kb/s (default)
      Metadata:
        HANDLER_NAME    : SoundHandler
        VENDOR_ID       : [0][0][0][0]
        _STATISTICS_TAGS: BPS DURATION NUMBER_OF_FRAMES NUMBER_OF_BYTES
        BPS             : 194993
        DURATION        : 00:26:13.290000000
        NUMBER_OF_FRAMES: 73749
        NUMBER_OF_BYTES : 38347662
        _STATISTICS_WRITING_APP: mkvpropedit v66.0.0 ('Josie') 64-bit
        _STATISTICS_WRITING_DATE_UTC: 2025-06-05 12:55:31
        encoder         : Lavc61.19.100 pcm_s16le
frame=  168 fps=0.0 q=-0.0 size=N/A time=00:00:07.00 bitrate=N/A speed=13.8x    frame=  404 fps=391 q=-0.0 size=N/A time=00:00:16.85 bitrate=N/A speed=16.3x    frame=  651 fps=422 q=-0.0 size=N/A time=00:00:27.15 bitrate=N/A speed=17.6x    frame=  907 fps=442 q=-0.0 size=N/A time=00:00:37.82 bitrate=N/A speed=18.4x    frame= 1170 fps=454 q=-0.0 size=N/A time=00:00:48.79 bitrate=N/A speed=18.9x    frame= 1426 fps=461 q=-0.0 size=N/A time=00:00:59.47 bitrate=N/A speed=19.2x    frame= 1684 fps=468 q=-0.0 size=N/A time=00:01:10.23 bitrate=N/A speed=19.5x    frame= 1981 fps=481 q=-0.0 size=N/A time=00:01:22.62 bitrate=N/A speed=  20x    frame= 2248 fps=485 q=-0.0 size=N/A time=00:01:33.76 bitrate=N/A speed=20.2x    frame= 2528 fps=490 q=-0.0 size=N/A time=00:01:45.43 bitrate=N/A speed=20.4x    frame= 2756 fps=486 q=-0.0 size=N/A time=00:01:54.94 bitrate=N/A speed=20.3x    frame= 2996 fps=484 q=-0.0 size=N/A time=00:02:04.95 bitrate=N/A speed=20.2x    frame= 3239 fps=483 q=-0.0 size=N/A time=00:02:15.09 bitrate=N/A speed=20.2x    frame= 3497 fps=485 q=-0.0 size=N/A time=00:02:25.85 bitrate=N/A speed=20.2x    frame= 3730 fps=482 q=-0.0 size=N/A time=00:02:35.57 bitrate=N/A speed=20.1x    frame= 3956 fps=480 q=-0.0 size=N/A time=00:02:44.99 bitrate=N/A speed=  20x    frame= 4165 fps=476 q=-0.0 size=N/A time=00:02:53.71 bitrate=N/A speed=19.8x    frame= 4394 fps=473 q=-0.0 size=N/A time=00:03:03.26 bitrate=N/A speed=19.7x    frame= 4538 fps=463 q=-0.0 size=N/A time=00:03:09.27 bitrate=N/A speed=19.3x    frame= 4762 fps=462 q=-0.0 size=N/A time=00:03:18.61 bitrate=N/A speed=19.3x    frame= 5018 fps=464 q=-0.0 size=N/A time=00:03:29.29 bitrate=N/A speed=19.3x    frame= 5280 fps=466 q=-0.0 size=N/A time=00:03:40.22 bitrate=N/A speed=19.4x    frame= 5539 fps=467 q=-0.0 size=N/A time=00:03:51.02 bitrate=N/A speed=19.5x    frame= 5793 fps=468 q=-0.0 size=N/A time=00:04:01.61 bitrate=N/A speed=19.5x    frame= 6074 fps=471 q=-0.0 size=N/A time=00:04:13.33 bitrate=N/A speed=19.7x    frame= 6358 fps=474 q=-0.0 size=N/A time=00:04:25.18 bitrate=N/A speed=19.8x    frame= 6612 fps=475 q=-0.0 size=N/A time=00:04:35.77 bitrate=N/A speed=19.8x    frame= 6856 fps=475 q=-0.0 size=N/A time=00:04:45.95 bitrate=N/A speed=19.8x    frame= 7138 fps=477 q=-0.0 size=N/A time=00:04:57.71 bitrate=N/A speed=19.9x    frame= 7418 fps=480 q=-0.0 size=N/A time=00:05:09.39 bitrate=N/A speed=  20x    frame= 7696 fps=482 q=-0.0 size=N/A time=00:05:20.98 bitrate=N/A speed=20.1x    frame= 7982 fps=484 q=-0.0 size=N/A time=00:05:32.91 bitrate=N/A speed=20.2x    frame= 8228 fps=484 q=-0.0 size=N/A time=00:05:43.17 bitrate=N/A speed=20.2x    frame= 8483 fps=484 q=-0.0 size=N/A time=00:05:53.81 bitrate=N/A speed=20.2x    frame= 8755 fps=485 q=-0.0 size=N/A time=00:06:05.15 bitrate=N/A speed=20.2x    frame= 9019 fps=486 q=-0.0 size=N/A time=00:06:16.16 bitrate=N/A speed=20.3x    frame= 9229 fps=484 q=-0.0 size=N/A time=00:06:24.92 bitrate=N/A speed=20.2x    frame= 9480 fps=484 q=-0.0 size=N/A time=00:06:35.39 bitrate=N/A speed=20.2x    frame= 9735 fps=484 q=-0.0 size=N/A time=00:06:46.07 bitrate=N/A speed=20.2x    frame=10015 fps=486 q=-0.0 size=N/A time=00:06:57.70 bitrate=N/A speed=20.3x    frame=10278 fps=486 q=-0.0 size=N/A time=00:07:08.67 bitrate=N/A speed=20.3x    frame=10507 fps=485 q=-0.0 size=N/A time=00:07:18.22 bitrate=N/A speed=20.2x    frame=10756 fps=485 q=-0.0 size=N/A time=00:07:28.61 bitrate=N/A speed=20.2x    frame=11014 fps=485 q=-0.0 size=N/A time=00:07:39.37 bitrate=N/A speed=20.2x    frame=11235 fps=484 q=-0.0 size=N/A time=00:07:48.59 bitrate=N/A speed=20.2x    frame=11442 fps=482 q=-0.0 size=N/A time=00:07:57.22 bitrate=N/A speed=20.1x    frame=11694 fps=482 q=-0.0 size=N/A time=00:08:07.73 bitrate=N/A speed=20.1x    frame=11947 fps=483 q=-0.0 size=N/A time=00:08:18.28 bitrate=N/A speed=20.1x    frame=12213 fps=483 q=-0.0 size=N/A time=00:08:29.38 bitrate=N/A speed=20.2x    frame=12476 fps=484 q=-0.0 size=N/A time=00:08:40.35 bitrate=N/A speed=20.2x    frame=12721 fps=483 q=-0.0 size=N/A time=00:08:50.57 bitrate=N/A speed=20.2x    frame=12971 fps=484 q=-0.0 size=N/A time=00:09:00.99 bitrate=N/A speed=20.2x    frame=13182 fps=482 q=-0.0 size=N/A time=00:09:09.79 bitrate=N/A speed=20.1x    frame=13435 fps=482 q=-0.0 size=N/A time=00:09:20.35 bitrate=N/A speed=20.1x    frame=13689 fps=482 q=-0.0 size=N/A time=00:09:30.94 bitrate=N/A speed=20.1x    frame=13960 fps=483 q=-0.0 size=N/A time=00:09:42.24 bitrate=N/A speed=20.2x    frame=14184 fps=483 q=-0.0 size=N/A time=00:09:51.59 bitrate=N/A speed=20.1x    frame=14420 fps=482 q=-0.0 size=N/A time=00:10:01.43 bitrate=N/A speed=20.1x    frame=14655 fps=481 q=-0.0 size=N/A time=00:10:11.23 bitrate=N/A speed=20.1x    frame=14921 fps=482 q=-0.0 size=N/A time=00:10:22.33 bitrate=N/A speed=20.1x    frame=15135 fps=481 q=-0.0 size=N/A time=00:10:31.25 bitrate=N/A speed=20.1x    frame=15391 fps=481 q=-0.0 size=N/A time=00:10:41.93 bitrate=N/A speed=20.1x    frame=15625 fps=481 q=-0.0 size=N/A time=00:10:51.69 bitrate=N/A speed=20.1x    frame=15857 fps=480 q=-0.0 size=N/A time=00:11:01.36 bitrate=N/A speed=  20x    frame=16115 fps=481 q=-0.0 size=N/A time=00:11:12.12 bitrate=N/A speed=  20x    frame=16372 fps=481 q=-0.0 size=N/A time=00:11:22.84 bitrate=N/A speed=20.1x    frame=16622 fps=481 q=-0.0 size=N/A time=00:11:33.27 bitrate=N/A speed=20.1x    frame=16848 fps=480 q=-0.0 size=N/A time=00:11:42.70 bitrate=N/A speed=  20x    frame=17095 fps=480 q=-0.0 size=N/A time=00:11:53.00 bitrate=N/A speed=  20x    frame=17334 fps=480 q=-0.0 size=N/A time=00:12:02.97 bitrate=N/A speed=  20x    frame=17564 fps=480 q=-0.0 size=N/A time=00:12:12.56 bitrate=N/A speed=  20x    frame=17809 fps=480 q=-0.0 size=N/A time=00:12:22.78 bitrate=N/A speed=  20x    frame=18058 fps=480 q=-0.0 size=N/A time=00:12:33.16 bitrate=N/A speed=  20x    frame=18291 fps=479 q=-0.0 size=N/A time=00:12:42.88 bitrate=N/A speed=  20x    frame=18550 fps=480 q=-0.0 size=N/A time=00:12:53.68 bitrate=N/A speed=  20x    frame=18773 fps=479 q=-0.0 size=N/A time=00:13:02.99 bitrate=N/A speed=  20x    frame=18983 fps=478 q=-0.0 size=N/A time=00:13:11.74 bitrate=N/A speed=19.9x    frame=19239 fps=478 q=-0.0 size=N/A time=00:13:22.42 bitrate=N/A speed=19.9x    frame=19510 fps=479 q=-0.0 size=N/A time=00:13:33.72 bitrate=N/A speed=  20x    frame=19772 fps=479 q=-0.0 size=N/A time=00:13:44.65 bitrate=N/A speed=  20x    frame=19973 fps=478 q=-0.0 size=N/A time=00:13:53.04 bitrate=N/A speed=19.9x    frame=20234 fps=478 q=-0.0 size=N/A time=00:14:03.92 bitrate=N/A speed=  20x    frame=20513 fps=479 q=-0.0 size=N/A time=00:14:15.56 bitrate=N/A speed=  20x    frame=20777 fps=480 q=-0.0 size=N/A time=00:14:26.57 bitrate=N/A speed=  20x    frame=21016 fps=479 q=-0.0 size=N/A time=00:14:36.54 bitrate=N/A speed=  20x    frame=21254 fps=479 q=-0.0 size=N/A time=00:14:46.46 bitrate=N/A speed=  20x    frame=21540 fps=480 q=-0.0 size=N/A time=00:14:58.39 bitrate=N/A speed=  20x    frame=21808 fps=480 q=-0.0 size=N/A time=00:15:09.57 bitrate=N/A speed=  20x    frame=22042 fps=480 q=-0.0 size=N/A time=00:15:19.33 bitrate=N/A speed=  20x    frame=22292 fps=480 q=-0.0 size=N/A time=00:15:29.76 bitrate=N/A speed=  20x    frame=22535 fps=480 q=-0.0 size=N/A time=00:15:39.89 bitrate=N/A speed=  20x    frame=22800 fps=481 q=-0.0 size=N/A time=00:15:50.95 bitrate=N/A speed=  20x    frame=23057 fps=481 q=-0.0 size=N/A time=00:16:01.66 bitrate=N/A speed=  20x    frame=23329 fps=481 q=-0.0 size=N/A time=00:16:13.01 bitrate=N/A speed=20.1x    frame=23577 fps=481 q=-0.0 size=N/A time=00:16:23.35 bitrate=N/A speed=20.1x    frame=23824 fps=481 q=-0.0 size=N/A time=00:16:33.65 bitrate=N/A speed=20.1x    frame=24048 fps=481 q=-0.0 size=N/A time=00:16:43.00 bitrate=N/A speed=20.1x    frame=24262 fps=480 q=-0.0 size=N/A time=00:16:51.92 bitrate=N/A speed=  20x    frame=24528 fps=480 q=-0.0 size=N/A time=00:17:03.02 bitrate=N/A speed=  20x    frame=24751 fps=480 q=-0.0 size=N/A time=00:17:12.32 bitrate=N/A speed=  20x    frame=24985 fps=480 q=-0.0 size=N/A time=00:17:22.08 bitrate=N/A speed=  20x    frame=25204 fps=479 q=-0.0 size=N/A time=00:17:31.21 bitrate=N/A speed=  20x    frame=25449 fps=479 q=-0.0 size=N/A time=00:17:41.43 bitrate=N/A speed=  20x    frame=25717 fps=479 q=-0.0 size=N/A time=00:17:52.61 bitrate=N/A speed=  20x    frame=25955 fps=479 q=-0.0 size=N/A time=00:18:02.53 bitrate=N/A speed=  20x    frame=26223 fps=480 q=-0.0 size=N/A time=00:18:13.71 bitrate=N/A speed=  20x    frame=26435 fps=479 q=-0.0 size=N/A time=00:18:22.55 bitrate=N/A speed=  20x    frame=26624 fps=478 q=-0.0 size=N/A time=00:18:30.44 bitrate=N/A speed=19.9x    frame=26847 fps=478 q=-0.0 size=N/A time=00:18:39.74 bitrate=N/A speed=19.9x    frame=27068 fps=477 q=-0.0 size=N/A time=00:18:48.96 bitrate=N/A speed=19.9x    frame=27320 fps=477 q=-0.0 size=N/A time=00:18:59.47 bitrate=N/A speed=19.9x    frame=27582 fps=478 q=-0.0 size=N/A time=00:19:10.39 bitrate=N/A speed=19.9x    frame=27855 fps=478 q=-0.0 size=N/A time=00:19:21.78 bitrate=N/A speed=19.9x    frame=28108 fps=478 q=-0.0 size=N/A time=00:19:32.33 bitrate=N/A speed=19.9x    frame=28363 fps=478 q=-0.0 size=N/A time=00:19:42.97 bitrate=N/A speed=19.9x    frame=28657 fps=479 q=-0.0 size=N/A time=00:19:55.23 bitrate=N/A speed=  20x    frame=28911 fps=479 q=-0.0 size=N/A time=00:20:05.82 bitrate=N/A speed=  20x    frame=29183 fps=479 q=-0.0 size=N/A time=00:20:17.17 bitrate=N/A speed=  20x    frame=29414 fps=479 q=-0.0 size=N/A time=00:20:26.80 bitrate=N/A speed=  20x    frame=29647 fps=479 q=-0.0 size=N/A time=00:20:36.52 bitrate=N/A speed=  20x    frame=29923 fps=480 q=-0.0 size=N/A time=00:20:48.03 bitrate=N/A speed=  20x    frame=30191 fps=480 q=-0.0 size=N/A time=00:20:59.21 bitrate=N/A speed=  20x    frame=30474 fps=480 q=-0.0 size=N/A time=00:21:11.01 bitrate=N/A speed=  20x    frame=30750 fps=481 q=-0.0 size=N/A time=00:21:22.53 bitrate=N/A speed=20.1x    frame=31001 fps=481 q=-0.0 size=N/A time=00:21:33.00 bitrate=N/A speed=20.1x    frame=31273 fps=481 q=-0.0 size=N/A time=00:21:44.34 bitrate=N/A speed=20.1x    frame=31541 fps=481 q=-0.0 size=N/A time=00:21:55.52 bitrate=N/A speed=20.1x    frame=31795 fps=481 q=-0.0 size=N/A time=00:22:06.11 bitrate=N/A speed=20.1x    frame=32042 fps=482 q=-0.0 size=N/A time=00:22:16.41 bitrate=N/A speed=20.1x    frame=32315 fps=482 q=-0.0 size=N/A time=00:22:27.80 bitrate=N/A speed=20.1x    frame=32592 fps=482 q=-0.0 size=N/A time=00:22:39.35 bitrate=N/A speed=20.1x    frame=32847 fps=482 q=-0.0 size=N/A time=00:22:49.99 bitrate=N/A speed=20.1x    frame=33108 fps=483 q=-0.0 size=N/A time=00:23:00.87 bitrate=N/A speed=20.1x    frame=33362 fps=483 q=-0.0 size=N/A time=00:23:11.47 bitrate=N/A speed=20.1x    frame=33626 fps=483 q=-0.0 size=N/A time=00:23:22.48 bitrate=N/A speed=20.1x    frame=33862 fps=483 q=-0.0 size=N/A time=00:23:32.32 bitrate=N/A speed=20.1x    frame=34126 fps=483 q=-0.0 size=N/A time=00:23:43.33 bitrate=N/A speed=20.1x    frame=34365 fps=483 q=-0.0 size=N/A time=00:23:53.30 bitrate=N/A speed=20.1x    frame=34624 fps=483 q=-0.0 size=N/A time=00:24:04.10 bitrate=N/A speed=20.1x    frame=34905 fps=483 q=-0.0 size=N/A time=00:24:15.82 bitrate=N/A speed=20.2x    frame=35156 fps=483 q=-0.0 size=N/A time=00:24:26.29 bitrate=N/A speed=20.2x    frame=35398 fps=483 q=-0.0 size=N/A time=00:24:36.39 bitrate=N/A speed=20.2x    frame=35604 fps=483 q=-0.0 size=N/A time=00:24:44.98 bitrate=N/A speed=20.1x    frame=35748 fps=481 q=-0.0 size=N/A time=00:24:50.98 bitrate=N/A speed=20.1x    frame=35886 fps=480 q=-0.0 size=N/A time=00:24:56.74 bitrate=N/A speed=  20x    frame=36011 fps=478 q=-0.0 size=N/A time=00:25:01.95 bitrate=N/A speed=19.9x    frame=36154 fps=477 q=-0.0 size=N/A time=00:25:07.92 bitrate=N/A speed=19.9x    frame=36288 fps=475 q=-0.0 size=N/A time=00:25:13.51 bitrate=N/A speed=19.8x    frame=36416 fps=474 q=-0.0 size=N/A time=00:25:18.85 bitrate=N/A speed=19.8x    frame=36548 fps=472 q=-0.0 size=N/A time=00:25:24.35 bitrate=N/A speed=19.7x    frame=36673 fps=471 q=-0.0 size=N/A time=00:25:29.56 bitrate=N/A speed=19.6x    frame=36811 fps=470 q=-0.0 size=N/A time=00:25:35.32 bitrate=N/A speed=19.6x    frame=36982 fps=469 q=-0.0 size=N/A time=00:25:42.45 bitrate=N/A speed=19.5x    frame=37119 fps=467 q=-0.0 size=N/A time=00:25:48.17 bitrate=N/A speed=19.5x    frame=37266 fps=466 q=-0.0 size=N/A time=00:25:54.30 bitrate=N/A speed=19.4x    frame=37413 fps=465 q=-0.0 size=N/A time=00:26:00.43 bitrate=N/A speed=19.4x    frame=37560 fps=464 q=-0.0 size=N/A time=00:26:06.56 bitrate=N/A speed=19.3x    [Parsed_psnr_10 @ 000002355f7983c0] PSNR y:48.018528 u:51.196850 v:50.758580 average:48.798953 min:39.027526 max:inf
[out#0/null @ 0000023552a46540] video:16190KiB audio:294996KiB subtitle:0KiB other streams:0KiB global headers:0KiB muxing overhead: unknown
frame=37679 fps=463 q=-0.0 Lsize=N/A time=00:26:11.52 bitrate=N/A speed=19.3x    
